<?xml version="1.0" standalone="no"?>
<!DOCTYPE svg PUBLIC "-//W3C//DTD SVG 20010904//EN"
 "http://www.w3.org/TR/2001/REC-SVG-20010904/DTD/svg10.dtd">
<svg version="1.0" xmlns="http://www.w3.org/2000/svg"
 width="192.000000pt" height="118.000000pt" viewBox="0 0 192.000000 118.000000"
 preserveAspectRatio="xMidYMid meet">

<g transform="translate(0.000000,118.000000) scale(0.100000,-0.100000)"
fill="#000000" stroke="none">
<path d="M318 1050 c-93 -16 -156 -40 -178 -67 -32 -41 -23 -57 35 -63 61 -6
58 6 85 -300 11 -129 23 -265 27 -302 l6 -68 -79 0 c-139 0 -198 -33 -119 -66
84 -35 394 -26 543 16 241 67 344 217 262 380 -23 45 -45 64 -103 90 -54 24
-54 26 -11 112 32 62 31 113 -2 164 -55 85 -134 115 -303 113 -64 -1 -137 -5
-163 -9z m274 -95 c102 -36 126 -96 63 -159 -44 -44 -189 -115 -241 -119 l-38
-2 -9 55 c-4 30 -7 92 -5 138 4 107 13 116 113 109 39 -3 91 -13 117 -22z
m157 -381 c34 -20 61 -68 61 -108 0 -63 -142 -164 -280 -201 -128 -34 -140
-23 -140 135 0 109 2 121 23 144 32 37 114 57 218 52 61 -2 96 -9 118 -22z"/>
<path d="M1500 845 c-122 -34 -210 -97 -210 -150 0 -37 51 -87 122 -119 196
-89 236 -110 266 -139 38 -37 41 -72 10 -112 -38 -48 -173 -91 -323 -101 -96
-7 -125 -16 -125 -39 0 -31 42 -40 180 -39 110 0 148 4 205 22 136 43 205 119
205 227 0 52 -3 58 -44 99 -38 38 -200 126 -356 193 l-25 11 37 16 c74 32 151
47 209 40 74 -8 131 9 127 38 -2 12 -16 30 -31 42 -37 27 -166 33 -247 11z"/>
<path d="M1055 487 c-70 -34 -99 -68 -90 -104 8 -35 32 -62 65 -75 85 -33 341
-26 307 8 -3 3 -60 10 -126 15 -120 9 -171 20 -171 38 0 10 27 17 111 26 118
13 113 92 -6 110 -30 4 -52 0 -90 -18z m95 -36 c0 -10 -78 -26 -87 -18 -3 3
10 10 28 16 45 12 59 13 59 2z"/>
</g>
</svg>
